HIERARCHY
ROOT hip
{
  OFFSET 0 0 0
  CHANNELS 6 Xposition Yposition Zposition Zrotation Yrotation Xrotation
  JOINT abdomen
  {
    OFFSET 0 20.6881 -0.73152
    CHANNELS 3 Zrotation Xrotation Yrotation
    JOINT chest
    {
      OFFSET 0 11.7043 -0.48768
      CHANNELS 3 Zrotation Xrotation Yrotation
      JOINT neck
      {
        OFFSET 0 22.1894 -2.19456
        CHANNELS 3 Zrotation Xrotation Yrotation
        JOINT head
        {
          OFFSET -0.24384 7.07133 1.2192
          CHANNELS 3 Zrotation Xrotation Yrotation
          JOINT leftEye
          {
            OFFSET 4.14528 8.04674 8.04672
            CHANNELS 3 Zrotation Xrotation Yrotation
            End Site
            {
              OFFSET 1 0 0
            }
          }
          JOINT rightEye
          {
            OFFSET -3.6576 8.04674 8.04672
            CHANNELS 3 Zrotation Xrotation Yrotation
            End Site
            {
              OFFSET 1 0 0
            }
          }
        }
      }
      JOINT rCollar
      {
        OFFSET -2.68224 19.2634 -4.8768
        CHANNELS 3 Zrotation Xrotation Yrotation
        JOINT rShldr
        {
          OFFSET -8.77824 -1.95073 1.46304
          CHANNELS 3 Zrotation Xrotation Yrotation
          JOINT rForeArm
          {
            OFFSET -28.1742 -1.7115 0.48768
            CHANNELS 3 Zrotation Xrotation Yrotation
            JOINT rHand
            {
              OFFSET -22.5879 0.773209 7.07136
              CHANNELS 3 Zrotation Xrotation Yrotation
              JOINT rThumb1
              {
                OFFSET -1.2192 -0.487915 3.41376
                CHANNELS 3 Zrotation Xrotation Yrotation
                JOINT rThumb2
                {
                  OFFSET -3.37035 -0.52449 3.41376
                  CHANNELS 3 Zrotation Xrotation Yrotation
                  End Site
                  {
                    OFFSET -1.78271 -1.18214 1.43049
                  }
                }
              }
              JOINT rIndex1
              {
                OFFSET -7.75947 0.938293 5.60832
                CHANNELS 3 Zrotation Xrotation Yrotation
                JOINT rIndex2
                {
                  OFFSET -2.54057 -0.884171 1.56538
                  CHANNELS 3 Zrotation Xrotation Yrotation
                  End Site
                  {
                    OFFSET -1.62519 -0.234802 1.16502
                  }
                }
              }
              JOINT rMid1
              {
                OFFSET -8.24714 1.18213 3.41376
                CHANNELS 3 Zrotation Xrotation Yrotation
                JOINT rMid2
                {
                  OFFSET -3.10165 -0.590103 1.0647
                  CHANNELS 3 Zrotation Xrotation Yrotation
                  End Site
                  {
                    OFFSET -2.48547 -0.328903 0.83742
                  }
                }
              }
              JOINT rRing1
              {
                OFFSET -8.82822 0.546677 1.51678
                CHANNELS 3 Zrotation Xrotation Yrotation
                JOINT rRing2
                {
                  OFFSET -2.60934 -0.819778 -0.0198488
                  CHANNELS 3 Zrotation Xrotation Yrotation
                  End Site
                  {
                    OFFSET -2.33842 -0.294052 0.168128
                  }
                }
              }
              JOINT rPinky1
              {
                OFFSET -8.27202 -0.0477905 -0.4584
                CHANNELS 3 Zrotation Xrotation Yrotation
                JOINT rPinky2
                {
                  OFFSET -1.82734 -0.647385 -0.700984
                  CHANNELS 3 Zrotation Xrotation Yrotation
                  End Site
                  {
                    OFFSET -1.69225 -0.51767 -0.607171
                  }
                }
              }
            }
          }
        }
      }
      JOINT lCollar
      {
        OFFSET 2.68224 19.2634 -4.8768
        CHANNELS 3 Zrotation Xrotation Yrotation
        JOINT lShldr
        {
          OFFSET 8.77824 -1.95073 1.46304
          CHANNELS 3 Zrotation Xrotation Yrotation
          JOINT lForeArm
          {
            OFFSET 28.1742 -1.7115 0.48768
            CHANNELS 3 Zrotation Xrotation Yrotation
            JOINT lHand
            {
              OFFSET 22.5879 0.773209 7.07136
              CHANNELS 3 Zrotation Xrotation Yrotation
              JOINT lThumb1
              {
                OFFSET 1.2192 -0.487915 3.41376
                CHANNELS 3 Zrotation Xrotation Yrotation
                JOINT lThumb2
                {
                  OFFSET 3.37035 -0.52449 3.41376
                  CHANNELS 3 Zrotation Xrotation Yrotation
                  End Site
                  {
                    OFFSET 1.78271 -1.18214 1.43049
                  }
                }
              }
              JOINT lIndex1
              {
                OFFSET 7.75947 0.938293 5.60832
                CHANNELS 3 Zrotation Xrotation Yrotation
                JOINT lIndex2
                {
                  OFFSET 2.54057 -0.884171 1.56538
                  CHANNELS 3 Zrotation Xrotation Yrotation
                  End Site
                  {
                    OFFSET 1.62519 -0.234802 1.16502
                  }
                }
              }
              JOINT lMid1
              {
                OFFSET 8.24714 1.18213 3.41376
                CHANNELS 3 Zrotation Xrotation Yrotation
                JOINT lMid2
                {
                  OFFSET 3.10165 -0.590103 1.0647
                  CHANNELS 3 Zrotation Xrotation Yrotation
                  End Site
                  {
                    OFFSET 2.48547 -0.328903 0.83742
                  }
                }
              }
              JOINT lRing1
              {
                OFFSET 8.82822 0.546677 1.51678
                CHANNELS 3 Zrotation Xrotation Yrotation
                JOINT lRing2
                {
                  OFFSET 2.60934 -0.819778 -0.0198488
                  CHANNELS 3 Zrotation Xrotation Yrotation
                  End Site
                  {
                    OFFSET 2.33842 -0.294052 0.168128
                  }
                }
              }
              JOINT lPinky1
              {
                OFFSET 8.27202 -0.0477905 -0.4584
                CHANNELS 3 Zrotation Xrotation Yrotation
                JOINT lPinky2
                {
                  OFFSET 1.82734 -0.647385 -0.700984
                  CHANNELS 3 Zrotation Xrotation Yrotation
                  End Site
                  {
                    OFFSET 1.69225 -0.51767 -0.607171
                  }
                }
              }
            }
          }
        }
      }
    }
  }
  JOINT rButtock
  {
    OFFSET -8.77824 4.35084 1.2192
    CHANNELS 3 Zrotation Xrotation Yrotation
    JOINT rThigh
    {
      OFFSET 0 -1.70687 -2.19456
      CHANNELS 3 Zrotation Xrotation Yrotation
      JOINT rShin
      {
        OFFSET 0 -36.8199 0.73152
        CHANNELS 3 Zrotation Xrotation Yrotation
        JOINT rFoot
        {
          OFFSET 0.73152 -45.1104 -5.12064
          CHANNELS 3 Zrotation Xrotation Yrotation
          End Site
          {
            OFFSET -1.1221 -3.69964 12.103
          }
        }
      }
    }
  }
  JOINT lButtock
  {
    OFFSET 8.77824 4.35084 1.2192
    CHANNELS 3 Zrotation Xrotation Yrotation
    JOINT lThigh
    {
      OFFSET 0 -1.70687 -2.19456
      CHANNELS 3 Zrotation Xrotation Yrotation
      JOINT lShin
      {
        OFFSET 0 -36.8199 0.73152
        CHANNELS 3 Zrotation Xrotation Yrotation
        JOINT lFoot
        {
          OFFSET -0.73152 -45.1104 -5.12064
          CHANNELS 3 Zrotation Xrotation Yrotation
          End Site
          {
            OFFSET 1.1221 -3.69964 12.103
          }
        }
      }
    }
  }
}
MOTION
Frames:	4
Frame Time:	0.00833333
2.93303 84.3996 -71.6646 0.0 0.0 0.0 -0.991224 -0.00434166 -0.0274291 -0.273429 -0.00447548 -0.0473707 1.65231e-14 -1.59028e-15 -2.48481e-17 4.97272e-14 3.18055e-15 -7.45443e-17 -0.0 0.0 0.0 -0.0 0.0 0.0 8.49715e-15 2.60128e-17 4.96962e-17 1.7733e-13 5.96354e-16 1.59028e-15 2.99211e-12 -8.78429e-13 -1.90833e-14 3.4279e-11 9.89103e-13 9.54166e-15 8.08499e-11 2.364e-13 -2.22639e-14 1.39622e-10 4.07111e-13 -6.20208e-14 8.08569e-11 2.39734e-13 -3.49861e-14 7.73091 5.47488 0.417314 8.08528e-11 2.37548e-13 -2.54444e-14 2.90554 0.965183 0.102902 8.0868e-11 2.37548e-13 -3.10104e-14 10.2786 0.731801 0.0259123 8.08515e-11 2.35361e-13 -2.8625e-14 2.22167 -0.733487 -0.20892 8.59888e-15 2.83423e-17 -9.93923e-17 1.71443e-13 6.1499e-16 -3.97569e-16 2.99837e-12 9.13614e-13 -4.77083e-14 3.42645e-11 -8.01897e-13 3.49861e-14 8.08308e-11 2.39466e-13 -3.18055e-14 1.3959e-10 4.10292e-13 -4.69132e-14 8.08239e-11 2.453e-13 -2.8625e-14 -7.73091 5.47488 -0.417314 8.083e-11 2.40032e-13 -3.18055e-14 -2.90554 0.965183 -0.102902 8.08158e-11 2.40132e-13 -2.94201e-14 -10.2786 0.731801 -0.0259123 8.08237e-11 2.36951e-13 -3.49861e-14 -2.22167 -0.733487 0.20892 -2.03217e-16 0.0 -3.88251e-19 -0.253794 -1.9193 -0.0128548 -0.00928918 -2.07855 -0.0767332 -0.497359 3.99655 0.138108 2.03217e-16 0.0 3.88251e-19 -1.2549 -5.46676 0.109737 -9.49363e-05 4.34722 -0.0243727 0.511619 1.11837 -0.0811217
2.62309 82.9387 -73.4085 -1.3103 0.1125 7.3556 -0.511138 0.260951 -0.449006 0.210177 1.21292 -0.18144 -0.68217 0.370766 0.0759095 0.425175 2.65301 0.277776 -0.0 0.0 0.0 -0.0 0.0 0.0 -1.88986e-14 7.15445e-14 -4.21447e-15 21.1436 2.17558 2.13699 -3.54942 -1.4987 5.66161 0.156986 8.80845 1.18577 6.30807e-10 -1.97342e-10 -2.3596e-10 1.08289e-09 -3.30421e-10 -4.22242e-10 6.30813e-10 -1.9734e-10 -2.35972e-10 7.73091 5.47488 0.417314 6.30808e-10 -1.97342e-10 -2.35964e-10 2.90554 0.965183 0.102902 6.30823e-10 -1.97342e-10 -2.35967e-10 10.2786 0.731801 0.0259123 6.30804e-10 -1.97343e-10 -2.35964e-10 2.22167 -0.733487 -0.20892 -1.88337e-14 7.15455e-14 -4.40665e-15 -21.2738 6.71805 -3.02781 2.78887 -1.07324 -4.54339 -0.00229107 -1.0618 0.149133 3.60191e-10 5.1498e-10 1.03183e-09 6.21253e-10 8.88158e-10 1.7845e-09 3.60182e-10 5.14982e-10 1.03183e-09 -7.73091 5.47488 -0.417314 3.60188e-10 5.14978e-10 1.03183e-09 -2.90554 0.965183 -0.102902 3.60175e-10 5.14978e-10 1.03183e-09 -10.2786 0.731801 -0.0259123 3.60188e-10 5.14977e-10 1.03183e-09 -2.22167 -0.733487 0.20892 -2.03217e-16 0.0 -3.88251e-19 -0.409934 -6.08065 -1.00061 -0.0106154 3.93455 0.0199527 -0.5334 0.326231 -0.659113 2.03217e-16 0.0 3.88251e-19 -0.482382 -9.25299 2.57965 -0.0116311 9.14443 -0.100208 0.573841 -1.53717 0.848383
2.62169 82.9383 -73.4095 -1.3202 0.125 7.3613 0.000806554 0.54135 -0.894184 0.727365 2.50032 -0.323349 -1.40452 0.762391 0.155942 0.846421 5.45784 0.57304 -0.0 0.0 0.0 -0.0 0.0 0.0 -4.9466e-14 1.44628e-13 -8.48873e-15 43.3192 4.46446 4.40634 -6.98129 -3.03428 11.6591 -0.0921934 18.1078 2.53624 1.20433e-09 -4.16962e-10 -4.5493e-10 2.06726e-09 -6.99282e-10 -8.15849e-10 1.20434e-09 -4.16961e-10 -4.54941e-10 7.73091 5.47488 0.417314 1.20433e-09 -4.16962e-10 -4.54936e-10 2.90554 0.965183 0.102902 1.20435e-09 -4.16963e-10 -4.54936e-10 10.2786 0.731801 0.0259123 1.20433e-09 -4.16962e-10 -4.54931e-10 2.22167 -0.733487 -0.20892 -4.94388e-14 1.44628e-13 -8.72789e-15 -42.9725 13.7569 -6.36925 5.55325 -2.1856 -9.35246 0.00130238 -2.18522 0.307095 6.86637e-10 1.04177e-09 2.12688e-09 1.18417e-09 1.79647e-09 3.67849e-09 6.86627e-10 1.04177e-09 2.12688e-09 -7.73091 5.47488 -0.417314 6.86632e-10 1.04177e-09 2.12688e-09 -2.90554 0.965183 -0.102902 6.8662e-10 1.04177e-09 2.12688e-09 -10.2786 0.731801 -0.0259123 6.86639e-10 1.04177e-09 2.12687e-09 -2.22167 -0.733487 0.20892 -2.03217e-16 0.0 -3.88251e-19 -0.733423 -10.4724 -2.06782 -0.0342916 10.2873 0.123942 -0.682616 -3.55107 -1.50406 2.03217e-16 0.0 3.88251e-19 0.698435 -13.222 5.26126 -0.00959151 14.2165 -0.183442 0.733418 -4.34201 1.83467
2.62105 82.9372 -73.4099 -1.3265 0.1384 7.3705 0.460745 0.791358 -1.29227 1.19451 3.64761 -0.45037 -2.04946 1.11229 0.227767 1.19772 7.95828 0.84053 -0.0 0.0 0.0 -0.0 0.0 0.0 -7.36901e-14 2.14581e-13 -1.27428e-14 62.9424 6.49031 6.44784 -9.77204 -4.3208 17.0289 -0.729991 26.3773 3.92447 1.73072e-09 -5.92499e-10 -7.07835e-10 2.96942e-09 -9.92078e-10 -1.2666e-09 1.73073e-09 -5.925e-10 -7.07846e-10 7.73091 5.47488 0.417314 1.73072e-09 -5.92501e-10 -7.07842e-10 2.90554 0.965183 0.102902 1.73073e-09 -5.92501e-10 -7.0784e-10 10.2786 0.731801 0.0259123 1.73071e-09 -5.925e-10 -7.07834e-10 2.22167 -0.733487 -0.20892 -7.36988e-14 2.1458e-13 -1.30212e-14 -61.5865 19.9218 -9.60046 7.86069 -3.13883 -13.6486 0.00973073 -3.1853 0.448015 9.18911e-10 1.54446e-09 3.09556e-09 1.58458e-09 2.66365e-09 5.3536e-09 9.18899e-10 1.54446e-09 3.09556e-09 -7.73091 5.47488 -0.417314 9.18904e-10 1.54445e-09 3.09556e-09 -2.90554 0.965183 -0.102902 9.18894e-10 1.54445e-09 3.09556e-09 -10.2786 0.731801 -0.0259123 9.18917e-10 1.54446e-09 3.09555e-09 -2.22167 -0.733487 0.20892 -2.03217e-16 0.0 -3.88251e-19 -1.16482 -14.3865 -3.05514 -0.075669 15.9606 0.221626 -0.913109 -7.00891 -2.26982 2.03217e-16 0.0 3.88251e-19 2.07859 -16.7078 7.74872 0.00541322 18.7387 -0.262091 0.958107 -6.84109 2.72587
